<?xml version="1.0" encoding="UTF-8"?><svg id="Layer_1" xmlns="http://www.w3.org/2000/svg" viewBox="0 0 72 30"><defs><style>.cls-1{fill:#fff;}.cls-2{fill:#e5e5e5;}.cls-3{fill:#212121;}</style></defs><g><path class="cls-2" d="m29.05,27.33c-2.46,0-4.47-1.58-4.47-3.53s2.01-3.53,4.47-3.53c.78,0,1.54.16,2.21.45l-1.31-16.45c-.03-.42.11-.83.39-1.14.28-.31.68-.48,1.1-.48h13.04c.79,0,1.43.59,1.49,1.37.96,11.75,1.45,17.77,1.45,17.91,0,1.95-2.01,3.53-4.48,3.53s-4.47-1.58-4.47-3.53,2.01-3.53,4.47-3.53c.78,0,1.54.16,2.21.46l-.8-10.04h-12.04c.34,4.09,1.22,14.78,1.22,14.97,0,1.95-2.01,3.53-4.48,3.53Z"/><path class="cls-1" d="m44.48,3.16c.52,0,.95.39,1,.91.31,3.74,1.45,17.69,1.45,17.87,0,1.67-1.78,3.03-3.98,3.03s-3.97-1.36-3.97-3.03,1.78-3.03,3.97-3.03c1.09,0,2.06.33,2.78.87l-.91-11.45h-13.04s1.26,15.27,1.26,15.47c0,1.67-1.78,3.03-3.98,3.03s-3.97-1.36-3.97-3.03,1.78-3.03,3.97-3.03c1.08,0,2.06.33,2.78.86l-1.38-17.39c-.05-.58.41-1.08,1-1.08h13.04m0-1h-13.04c-.56,0-1.09.23-1.47.64-.38.41-.57.96-.52,1.52l1.25,15.68c-.52-.15-1.08-.22-1.65-.22-2.74,0-4.97,1.81-4.97,4.03s2.23,4.03,4.97,4.03,4.98-1.81,4.98-4.03c0-.15-.39-5.02-1.17-14.47h11.03l.7,8.8c-.52-.15-1.08-.22-1.65-.22-2.74,0-4.97,1.81-4.97,4.03s2.23,4.03,4.97,4.03,4.98-1.81,4.98-4.03c0-.07,0-.23-1.45-17.95-.09-1.04-.94-1.83-1.99-1.83h0Z"/></g><g><path class="cls-2" d="m29.05,27.08c-2.33,0-4.22-1.47-4.22-3.28s1.89-3.28,4.22-3.28c.9,0,1.77.22,2.49.63l-1.34-16.89c-.03-.35.09-.69.33-.95.24-.26.57-.4.92-.4h13.04c.66,0,1.19.49,1.25,1.14.54,6.61,1.45,17.72,1.45,17.89,0,1.81-1.9,3.28-4.23,3.28s-4.22-1.47-4.22-3.28,1.89-3.28,4.22-3.28c.91,0,1.77.22,2.49.63l-.85-10.71h-12.54c.2,2.46,1.24,15.03,1.24,15.22,0,1.81-1.9,3.28-4.23,3.28Z"/><path class="cls-3" d="m44.48,3.16c.52,0,.95.39,1,.91.31,3.74,1.45,17.69,1.45,17.87,0,1.67-1.78,3.03-3.98,3.03s-3.97-1.36-3.97-3.03,1.78-3.03,3.97-3.03c1.09,0,2.06.33,2.78.87l-.91-11.45h-13.04s1.26,15.27,1.26,15.47c0,1.67-1.78,3.03-3.98,3.03s-3.97-1.36-3.97-3.03,1.78-3.03,3.97-3.03c1.08,0,2.06.33,2.78.86l-1.38-17.39c-.05-.58.41-1.08,1-1.08h13.04m0-.5h-13.04c-.42,0-.82.18-1.1.48-.28.31-.43.72-.39,1.14l1.31,16.45c-.67-.3-1.43-.45-2.21-.45-2.46,0-4.47,1.58-4.47,3.53s2.01,3.53,4.47,3.53,4.48-1.58,4.48-3.53c0-.2-.88-10.88-1.22-14.97h12.04l.8,10.04c-.67-.3-1.42-.46-2.21-.46-2.46,0-4.47,1.58-4.47,3.53s2.01,3.53,4.47,3.53,4.48-1.58,4.48-3.53c0-.14-.49-6.16-1.45-17.91-.06-.78-.71-1.37-1.49-1.37h0Z"/></g></svg>