<?xml version="1.0" encoding="UTF-8"?><svg id="Layer_1" xmlns="http://www.w3.org/2000/svg" viewBox="0 0 72 30"><defs><style>.cls-1{fill:#fff;}.cls-2{fill:#e5e5e5;stroke:#212121;stroke-miterlimit:10;}.cls-3{fill:#4c4c4c;}</style></defs><g><g><path class="cls-3" d="M25.51,23.78c-1.21,0-2.2-.99-2.2-2.2V13.2c0-1.21,.99-2.2,2.2-2.2s2.2,.99,2.2,2.2v8.38c0,1.21-.99,2.2-2.2,2.2Z"/><path class="cls-1" d="M25.51,11.45c.97,0,1.75,.78,1.75,1.75v8.38c0,.97-.78,1.75-1.75,1.75s-1.75-.78-1.75-1.75V13.2c0-.97,.78-1.75,1.75-1.75m0-.9c-1.46,0-2.65,1.19-2.65,2.65v8.38c0,1.46,1.19,2.65,2.65,2.65s2.65-1.19,2.65-2.65V13.2c0-1.46-1.19-2.65-2.65-2.65h0Z"/></g><g><path class="cls-3" d="M20.27,23.78c-1.21,0-2.2-.99-2.2-2.2v-2.04c0-1.21,.99-2.2,2.2-2.2s2.2,.99,2.2,2.2v2.04c0,1.21-.99,2.2-2.2,2.2Z"/><path class="cls-1" d="M20.27,17.79c.97,0,1.75,.78,1.75,1.75v2.04c0,.97-.78,1.75-1.75,1.75s-1.75-.78-1.75-1.75v-2.04c0-.97,.78-1.75,1.75-1.75m0-.9c-1.46,0-2.65,1.19-2.65,2.65v2.04c0,1.46,1.19,2.65,2.65,2.65s2.65-1.19,2.65-2.65v-2.04c0-1.46-1.19-2.65-2.65-2.65h0Z"/></g><g><path class="cls-3" d="M30.76,23.78c-1.21,0-2.2-.99-2.2-2.2V6.25c0-1.21,.99-2.2,2.2-2.2s2.2,.99,2.2,2.2v15.33c0,1.21-.99,2.2-2.2,2.2Z"/><path class="cls-1" d="M30.76,4.5c.97,0,1.75,.78,1.75,1.75v15.33c0,.97-.78,1.75-1.75,1.75s-1.75-.78-1.75-1.75V6.25c0-.97,.78-1.75,1.75-1.75m0-.9c-1.46,0-2.65,1.19-2.65,2.65v15.33c0,1.46,1.19,2.65,2.65,2.65s2.65-1.19,2.65-2.65V6.25c0-1.46-1.19-2.65-2.65-2.65h0Z"/></g><g><path class="cls-3" d="M36,23.78c-1.21,0-2.2-.99-2.2-2.2v-5.07c0-1.21,.99-2.2,2.2-2.2s2.2,.99,2.2,2.2v5.07c0,1.21-.99,2.2-2.2,2.2Z"/><path class="cls-1" d="M36,14.76c.97,0,1.75,.78,1.75,1.75v5.07c0,.97-.78,1.75-1.75,1.75s-1.75-.78-1.75-1.75v-5.07c0-.97,.78-1.75,1.75-1.75m0-.9c-1.46,0-2.65,1.19-2.65,2.65v5.07c0,1.46,1.19,2.65,2.65,2.65s2.65-1.19,2.65-2.65v-5.07c0-1.46-1.19-2.65-2.65-2.65h0Z"/></g><g><path class="cls-3" d="M51.73,23.78c-1.21,0-2.2-.99-2.2-2.2v-1.76c0-1.21,.99-2.2,2.2-2.2s2.2,.99,2.2,2.2v1.76c0,1.21-.99,2.2-2.2,2.2Z"/><path class="cls-1" d="M51.73,18.07c.97,0,1.75,.78,1.75,1.75v1.76c0,.97-.78,1.75-1.75,1.75s-1.75-.78-1.75-1.75v-1.76c0-.97,.78-1.75,1.75-1.75m0-.9c-1.46,0-2.65,1.19-2.65,2.65v1.76c0,1.46,1.19,2.65,2.65,2.65s2.65-1.19,2.65-2.65v-1.76c0-1.46-1.19-2.65-2.65-2.65h0Z"/></g><g><path class="cls-3" d="M46.49,23.78c-1.21,0-2.2-.99-2.2-2.2v-4.08c0-1.21,.99-2.2,2.2-2.2s2.2,.99,2.2,2.2v4.08c0,1.21-.99,2.2-2.2,2.2Z"/><path class="cls-1" d="M46.49,15.75c.97,0,1.75,.78,1.75,1.75v4.08c0,.97-.78,1.75-1.75,1.75s-1.75-.78-1.75-1.75v-4.08c0-.97,.78-1.75,1.75-1.75m0-.9c-1.46,0-2.65,1.19-2.65,2.65v4.08c0,1.46,1.19,2.65,2.65,2.65s2.65-1.19,2.65-2.65v-4.08c0-1.46-1.19-2.65-2.65-2.65h0Z"/></g><g><path class="cls-3" d="M41.24,23.78c-1.21,0-2.2-.99-2.2-2.2V10.56c0-1.21,.99-2.2,2.2-2.2s2.2,.99,2.2,2.2v11.02c0,1.21-.99,2.2-2.2,2.2Z"/><path class="cls-1" d="M41.24,8.81c.97,0,1.75,.78,1.75,1.75v11.02c0,.97-.78,1.75-1.75,1.75s-1.75-.78-1.75-1.75V10.56c0-.97,.78-1.75,1.75-1.75m0-.9c-1.46,0-2.65,1.19-2.65,2.65v11.02c0,1.46,1.19,2.65,2.65,2.65s2.65-1.19,2.65-2.65V10.56c0-1.46-1.19-2.65-2.65-2.65h0Z"/></g></g><g><path class="cls-2" d="M25.51,23.33c-.97,0-1.75-.78-1.75-1.75V13.2c0-.97,.78-1.75,1.75-1.75s1.75,.78,1.75,1.75v8.38c0,.97-.78,1.75-1.75,1.75Z"/><path class="cls-2" d="M20.27,23.33c-.97,0-1.75-.78-1.75-1.75v-2.04c0-.97,.78-1.75,1.75-1.75s1.75,.78,1.75,1.75v2.04c0,.97-.78,1.75-1.75,1.75Z"/><path class="cls-2" d="M30.76,23.33c-.97,0-1.75-.78-1.75-1.75V6.25c0-.97,.78-1.75,1.75-1.75s1.75,.78,1.75,1.75v15.33c0,.97-.78,1.75-1.75,1.75Z"/><path class="cls-2" d="M36,23.33c-.97,0-1.75-.78-1.75-1.75v-5.07c0-.97,.78-1.75,1.75-1.75s1.75,.78,1.75,1.75v5.07c0,.97-.78,1.75-1.75,1.75Z"/><path class="cls-2" d="M51.73,23.33c-.97,0-1.75-.78-1.75-1.75v-1.76c0-.97,.78-1.75,1.75-1.75s1.75,.78,1.75,1.75v1.76c0,.97-.78,1.75-1.75,1.75Z"/><path class="cls-2" d="M46.49,23.33c-.97,0-1.75-.78-1.75-1.75v-4.08c0-.97,.78-1.75,1.75-1.75s1.75,.78,1.75,1.75v4.08c0,.97-.78,1.75-1.75,1.75Z"/><path class="cls-2" d="M41.24,23.33c-.97,0-1.75-.78-1.75-1.75V10.56c0-.97,.78-1.75,1.75-1.75s1.75,.78,1.75,1.75v11.02c0,.97-.78,1.75-1.75,1.75Z"/></g></svg>