<?xml version="1.0" encoding="UTF-8"?><svg xmlns="http://www.w3.org/2000/svg" viewBox="0 0 72 30"><defs><style>.cls-1{fill:#232323;stroke:#232323;stroke-miterlimit:10;stroke-width:2px;}.cls-2{fill:#333;}.cls-3{fill:#7f7f7f;}</style></defs><g id="BG"><rect class="cls-1" x="0" y=".39" width="72" height="30"/></g><g id="Layer_1"><path class="cls-3" d="m23.87,15.22h25.09v9.9c0,1.53-1.24,2.77-2.77,2.77h-19.55c-1.53,0-2.77-1.24-2.77-2.77v-9.9h0Z"/><path class="cls-3" d="m24.73,6.09h19.55c1.53,0,2.77,1.24,2.77,2.77v1.5h-25.09v-1.5c0-1.53,1.24-2.77,2.77-2.77Z" transform="translate(-.4 14.57) rotate(-23.71)"/><rect class="cls-3" x="23.45" y="13.19" width="5.02" height="1.07" transform="translate(-3.33 11.6) rotate(-23.71)"/><rect class="cls-3" x="41.83" y="5.12" width="5.02" height="1.07" transform="translate(1.47 18.3) rotate(-23.71)"/><rect class="cls-3" x="32.64" y="9.16" width="5.02" height="1.07" transform="translate(-.93 14.95) rotate(-23.71)"/><rect class="cls-2" x="28.04" y="11.18" width="5.02" height="1.07" transform="translate(-2.13 13.27) rotate(-23.71)"/><rect class="cls-2" x="37.23" y="7.14" width="5.02" height="1.07" transform="translate(.27 16.63) rotate(-23.71)"/><rect class="cls-3" x="23.87" y="15.22" width="5.02" height="1.07"/><rect class="cls-3" x="43.95" y="15.22" width="5.02" height="1.07"/><rect class="cls-3" x="33.91" y="15.22" width="5.02" height="1.07"/><rect class="cls-2" x="28.89" y="15.22" width="5.02" height="1.07"/><rect class="cls-2" x="38.93" y="15.22" width="5.02" height="1.07"/><path class="cls-2" d="m39.16,21.05l-4.89-2.83c-.39-.23-.88.06-.88.51v5.65c0,.45.49.73.88.51l4.89-2.83c.39-.23.39-.79,0-1.01Z"/></g></svg>