<?xml version="1.0" encoding="UTF-8"?><svg xmlns="http://www.w3.org/2000/svg" viewBox="0 0 72 30"><defs><style>.cls-1{fill:#fff;}.cls-2{stroke:#232323;stroke-miterlimit:10;stroke-width:2px;}.cls-2,.cls-3{fill:#232323;}.cls-4{fill:#e5e5e5;}.cls-5{fill:#212121;}.cls-6{fill:#7f7f7f;}</style></defs><g id="BG"><rect class="cls-2" x="0" y="-.56" width="72" height="30"/></g><g id="Layer_1"><path class="cls-1" d="m22.36,14.25c-.41-.92-.43-1.94-.06-2.89.37-.94,1.08-1.68,2-2.08L42.19,1.43c.48-.21.99-.32,1.52-.32,1.5,0,2.85.89,3.45,2.26l1,2.28-24.8,10.89-1-2.29Z"/><path class="cls-1" d="m26.64,28.89c-2.08,0-3.77-1.69-3.77-3.77v-10.9h27.09v10.9c0,2.08-1.69,3.77-3.77,3.77h-19.55Z"/><path class="cls-5" d="m22.91,14.01c-.34-.77-.36-1.64-.05-2.43.31-.79.9-1.41,1.68-1.75L42.43,1.98c.4-.18.83-.27,1.28-.27,1.26,0,2.4.74,2.9,1.9l.76,1.74-23.7,10.41-.76-1.74Z"/><path class="cls-5" d="m26.64,28.29c-1.75,0-3.17-1.42-3.17-3.17v-10.3h25.89v10.3c0,1.75-1.42,3.17-3.17,3.17h-19.55Z"/><path class="cls-4" d="m23.87,15.22h25.09v9.9c0,1.53-1.24,2.77-2.77,2.77h-19.55c-1.53,0-2.77-1.24-2.77-2.77v-9.9h0Z"/><path class="cls-4" d="m24.73,6.09h19.55c1.53,0,2.77,1.24,2.77,2.77v1.5h-25.09v-1.5c0-1.53,1.24-2.77,2.77-2.77Z" transform="translate(-.4 14.57) rotate(-23.71)"/><rect class="cls-6" x="23.45" y="13.19" width="5.02" height="1.07" transform="translate(-3.33 11.6) rotate(-23.71)"/><rect class="cls-6" x="41.83" y="5.12" width="5.02" height="1.07" transform="translate(1.47 18.3) rotate(-23.71)"/><rect class="cls-6" x="32.64" y="9.16" width="5.02" height="1.07" transform="translate(-.93 14.95) rotate(-23.71)"/><rect class="cls-3" x="28.04" y="11.18" width="5.02" height="1.07" transform="translate(-2.13 13.27) rotate(-23.71)"/><rect class="cls-3" x="37.23" y="7.14" width="5.02" height="1.07" transform="translate(.27 16.63) rotate(-23.71)"/><rect class="cls-6" x="23.87" y="15.22" width="5.02" height="1.07"/><rect class="cls-6" x="43.95" y="15.22" width="5.02" height="1.07"/><rect class="cls-6" x="33.91" y="15.22" width="5.02" height="1.07"/><rect class="cls-3" x="28.89" y="15.22" width="5.02" height="1.07"/><rect class="cls-3" x="38.93" y="15.22" width="5.02" height="1.07"/><path class="cls-3" d="m39.16,21.05l-4.89-2.83c-.39-.23-.88.06-.88.51v5.65c0,.45.49.73.88.51l4.89-2.83c.39-.23.39-.79,0-1.01Z"/></g></svg>