<?xml version="1.0" encoding="UTF-8"?><svg xmlns="http://www.w3.org/2000/svg" viewBox="0 0 72 30"><defs><style>.cls-1{fill:#fff;}.cls-2{stroke:#232323;stroke-miterlimit:10;stroke-width:2px;}.cls-2,.cls-3{fill:#232323;}.cls-4{fill:#e5e5e5;}.cls-5{fill:#212121;}.cls-6{fill:#7f7f7f;}</style></defs><g id="BG"><rect class="cls-2" x="0" y="-.56" width="72" height="30"/></g><g id="Layer_1"><path class="cls-1" d="m25.72,14.44c-.31-.69-.32-1.47-.05-2.17.28-.71.81-1.27,1.51-1.57l13.49-5.92c.36-.16.75-.24,1.14-.24,1.13,0,2.15.67,2.6,1.7l.75,1.72-18.69,8.21-.75-1.72Z"/><path class="cls-1" d="m28.95,25.47c-1.57,0-2.84-1.27-2.84-2.84v-8.22h20.42v8.22c0,1.57-1.27,2.84-2.84,2.84h-14.73Z"/><path class="cls-5" d="m26.13,14.26c-.26-.58-.27-1.23-.04-1.83.23-.6.68-1.06,1.27-1.32l13.49-5.92c.31-.14.63-.2.96-.2.95,0,1.81.56,2.19,1.43l.57,1.31-17.86,7.85-.57-1.31Z"/><path class="cls-5" d="m28.95,25.02c-1.32,0-2.39-1.07-2.39-2.39v-7.76h19.51v7.76c0,1.32-1.07,2.39-2.39,2.39h-14.73Z"/><path class="cls-4" d="m26.86,15.17h18.91v7.45c0,1.16-.94,2.1-2.1,2.1h-14.72c-1.16,0-2.1-.94-2.1-2.1v-7.45h0Z"/><path class="cls-4" d="m27.51,8.28h14.72c1.16,0,2.1.94,2.1,2.1v1.12h-18.91v-1.12c0-1.16.94-2.1,2.1-2.1Z" transform="translate(-1.04 14.86) rotate(-23.71)"/><rect class="cls-6" x="26.54" y="13.64" width="3.78" height=".8" transform="translate(-3.25 12.62) rotate(-23.71)"/><rect class="cls-6" x="40.39" y="7.56" width="3.78" height=".8" transform="translate(.37 17.67) rotate(-23.71)"/><rect class="cls-6" x="33.46" y="10.6" width="3.78" height=".8" transform="translate(-1.44 15.14) rotate(-23.71)"/><rect class="cls-3" x="30" y="12.12" width="3.78" height=".8" transform="translate(-2.34 13.88) rotate(-23.71)"/><rect class="cls-3" x="36.93" y="9.08" width="3.78" height=".8" transform="translate(-.53 16.41) rotate(-23.71)"/><rect class="cls-6" x="26.86" y="15.17" width="3.78" height=".8"/><rect class="cls-6" x="41.99" y="15.17" width="3.78" height=".8"/><rect class="cls-6" x="34.42" y="15.17" width="3.78" height=".8"/><rect class="cls-3" x="30.64" y="15.17" width="3.78" height=".8"/><rect class="cls-3" x="38.21" y="15.17" width="3.78" height=".8"/><path class="cls-3" d="m38.16,19.44l-3.26-1.88c-.39-.23-.88.06-.88.51v3.76c0,.45.49.73.88.51l3.26-1.88c.39-.23.39-.79,0-1.01Z"/></g></svg>